<svg id="Layer_1" enable-background="new 0 0 512 512" height="512" viewBox="0 0 512 512" width="512" xmlns="http://www.w3.org/2000/svg"><path d="m178.55 135.77c-11.53 12.77-18.55 29.68-18.55 48.23-32.644 0-58.973 27.981-55.72 61.65-54.91-11-96.28-59.5-96.28-117.65 0-66.27 53.73-120 120-120h32c-23.71 9.37-40 36.95-40 64 0 33.52 25.75 61.01 58.55 63.77z" fill="#ffdf81"/><path d="m178.55 135.77c-11.53 12.77-18.55 29.68-18.55 48.23-32.644 0-58.973 27.981-55.72 61.65-8.45-1.69-16.58-4.27-24.28-7.65v-11.65c0-30.93 25.07-56 56-56 0-16.41 5.49-31.54 14.75-43.65 8.22 5.01 17.68 8.22 27.8 9.07z" fill="#ffcd76"/><path d="m160 8c-8.47 3.34-16 9.01-22.17 16.16-98.987 4.996-148.569 121.126-86.3 196.32-26.59-22.01-43.53-55.27-43.53-92.48 0-66.27 53.73-120 120-120z" fill="#f9ecb4"/><path d="m224 392c0 17.674 14.327 32 32 32s32-14.326 32-32l-32-64z" fill="#add9ff"/><path d="m432 296h-272c-30.93 0-56-25.07-56-56s25.07-56 56-56c0-47.91 45.994-82.413 91.92-69.21 52.411-71.932 165.158-48.807 185.34 37.4 37.31 2.69 66.74 33.82 66.74 71.81 0 39.76-32.24 72-72 72z" fill="#5989b3"/><path d="m417.1 110.89c-46.084-37.033-114.11-28.233-149.18 19.9-46.024-13.231-91.92 21.386-91.92 69.21-45.061 0-70.917 50.224-46.78 86.78-15.2-10.01-25.22-27.22-25.22-46.78 0-30.93 25.07-56 56-56 0-47.91 45.994-82.413 91.92-69.21 40.365-55.401 122.233-57.324 165.18-3.9z" fill="#436786"/><g fill="#add9ff"><path d="m56 392c0 17.674 14.327 32 32 32s32-14.326 32-32l-32-64z"/><path d="m136 472c0 17.674 14.327 32 32 32s32-14.326 32-32l-32-64z"/><path d="m392 392c0 17.674 14.327 32 32 32s32-14.326 32-32l-32-64z"/><path d="m320 472c0 17.674 14.327 32 32 32s32-14.326 32-32l-32-64z"/></g><path d="m443.602 144.838c-25.16-86.793-137.948-109.625-194.838-39.057-26.434-5.661-53.867 2.317-73.196 21.574-12.522-1.889-24.031-7.961-32.716-17.363-29.377-31.803-10.874-82.315 20.089-94.552 8.178-3.232 5.842-15.44-2.941-15.44h-32c-70.58 0-128 57.42-128 128 0 58.899 40.544 110.273 97.191 124.261 5.738 29.443 31.713 51.739 62.809 51.739h136c4.418 0 8-3.582 8-8s-3.582-8-8-8h-136c-26.467 0-48-21.533-48-48s21.533-48 48-48c4.418 0 8-3.581 8-8 0-35.29 28.71-64 64-64s64 28.71 64 64c0 4.419 3.582 8 8 8s8-3.581 8-8c0-32.284-19.233-60.143-46.834-72.772 52.831-57.639 147.026-31.021 164.304 42.787.798 3.41 3.722 5.904 7.214 6.156 33.262 2.396 59.316 30.434 59.316 63.829 0 35.29-28.71 64-64 64h-72c-4.418 0-8 3.582-8 8s3.582 8 8 8h72c44.112 0 80-35.888 80-80 0-39.794-29.603-73.503-68.398-79.162zm-291.249 31.616c-30.202 3.611-53.992 28.345-56.172 58.958-47.007-13.889-80.181-57.57-80.181-107.412 0-61.757 50.243-112 112-112h6.497c-40.491 42.037-23.727 110.164 29.894 125.29-6.57 10.361-10.831 22.324-12.038 35.164z"/><path d="m333.66 301.66c3.115-3.114 3.117-8.203 0-11.32-3.115-3.115-8.204-3.116-11.32 0-3.114 3.114-3.117 8.204 0 11.32 3.114 3.115 8.203 3.117 11.32 0z"/><path d="m263.155 324.422c-2.941-5.883-11.365-5.891-14.311 0-34.896 69.801-32.844 64.882-32.844 67.578 0 22.056 17.944 40 40 40s40-17.944 40-40c0-2.698 2.019 2.157-32.845-67.578zm-7.155 91.578c-12.642 0-23.032-9.824-23.936-22.239l23.936-47.872 23.936 47.872c-.904 12.415-11.294 22.239-23.936 22.239z"/><path d="m95.155 324.422c-2.941-5.883-11.365-5.891-14.311 0-34.896 69.801-32.844 64.882-32.844 67.578 0 22.056 17.944 40 40 40s40-17.944 40-40c0-2.698 2.019 2.157-32.845-67.578zm-7.155 91.578c-12.642 0-23.032-9.824-23.936-22.239l23.936-47.872 23.936 47.872c-.904 12.415-11.294 22.239-23.936 22.239z"/><path d="m175.155 404.422c-2.941-5.883-11.365-5.891-14.311 0-34.896 69.801-32.844 64.882-32.844 67.578 0 22.056 17.944 40 40 40s40-17.944 40-40c0-2.698 2.019 2.157-32.845-67.578zm-7.155 91.578c-12.642 0-23.032-9.824-23.936-22.239l23.936-47.872 23.936 47.872c-.904 12.415-11.294 22.239-23.936 22.239z"/><path d="m431.155 324.422c-2.941-5.883-11.365-5.891-14.311 0-34.896 69.801-32.844 64.882-32.844 67.578 0 22.056 17.944 40 40 40s40-17.944 40-40c0-2.698 2.019 2.157-32.845-67.578zm-7.155 91.578c-12.642 0-23.032-9.824-23.936-22.239l23.936-47.872 23.936 47.872c-.904 12.415-11.294 22.239-23.936 22.239z"/><path d="m359.155 404.422c-2.941-5.883-11.365-5.891-14.311 0-34.896 69.801-32.844 64.882-32.844 67.578 0 22.056 17.944 40 40 40s40-17.944 40-40c0-2.698 2.019 2.157-32.845-67.578zm-7.155 91.578c-12.642 0-23.032-9.824-23.936-22.239l23.936-47.872 23.936 47.872c-.904 12.415-11.294 22.239-23.936 22.239z"/><circle cx="144" cy="264" fill="#436786" r="8"/><circle cx="132" cy="252" fill="#436786" r="4"/><circle cx="64" cy="200" fill="#ffcd76" r="8"/><circle cx="52" cy="188" fill="#ffcd76" r="4"/></svg>